<?xml version="1.0" encoding="utf-8"?>
<!-- Generator: Adobe Illustrator 23.0.0, SVG Export Plug-In . SVG Version: 6.00 Build 0)  -->
<svg version="1.1" id="Слой_1" xmlns="http://www.w3.org/2000/svg" xmlns:xlink="http://www.w3.org/1999/xlink" x="0px" y="0px"
	 viewBox="0 0 76.1 78.8" style="enable-background:new 0 0 76.1 78.8;" xml:space="preserve">
<style type="text/css">
	.st0{clip-path:url(#SVGID_2_);fill:url(#SVGID_3_);}
</style>
<g>
	<defs>
		<path id="SVGID_1_" d="M59.3,13.3c-0.5,0-0.8-0.4-0.8-0.8s0.4-0.8,0.8-0.8h2.5c0.5,0,0.8,0.4,0.8,0.8s-0.4,0.8-0.8,0.8H59.3z
			 M56.9,15.5c-0.5,0-0.8-0.4-0.8-0.8c0-0.5,0.4-0.8,0.8-0.8h8.6c0.5,0,0.8,0.4,0.8,0.8c0,0.5-0.4,0.8-0.8,0.8H56.9z M66.8,8.5
			c0.2-0.2,0.4-0.4,0.6-0.6c-1.1-0.2-2-0.7-2.8-1.4c-0.7-0.6-1.2-1.4-1.6-2.3c-0.1,0.1-0.2,0.3-0.3,0.4c-0.3,0.4-0.5,1-0.5,1.6
			c0,0.8,0.3,1.5,0.8,2c0.5,0.5,1.2,0.8,2,0.8C65.7,9.1,66.3,8.9,66.8,8.5z M63.5,1.9h-7.3l4,4l0,0l0,0l0,0l0,0l0,0l0,0l0,0l0,0l0,0
			l0,0l0,0l0,0l0,0l0,0l0,0l0,0l0,0l0,0l0,0l0,0l0,0l0,0l0,0l0,0l0,0l0,0l0,0l0,0l0,0l0,0l0,0l0,0l0,0l0,0l0,0l0,0l0,0l0,0l0,0l0,0
			l0,0l0,0l0,0l0,0l0,0l0,0l0,0l0,0l0,0l0,0l0,0l0,0l0,0l0,0l0,0l0,0l0,0l0,0l0,0l0,0l0,0l0,0l0,0l0,0l0,0l0,0l0,0l0,0l0,0l0,0l0,0
			l0,0l0,0l0,0l0,0l0,0c0-0.9,0.3-1.8,0.7-2.5c0.5-0.7,1.2-1.3,2-1.7L63.5,1.9z M69.5,6.3V1.9h-5.3l0.1,0.8c0.1,1,0.6,1.9,1.3,2.5
			c0.7,0.6,1.6,1,2.7,1c0.1,0,0.1,0,0.1,0l0.1,0L69.5,6.3z M47,20.5c16.1,0,29.1,13,29.1,29.1c0,16.1-13,29.1-29.1,29.1v0H29.6V61.1
			H47v0c6.3,0,11.4-5.1,11.4-11.4c0-6.3-5.1-11.4-11.4-11.4H29.6V20.5H47z M36,27.4c0.4,0.1,0.8,0.2,1.1,0.2c0-0.3-0.1-0.7-0.3-1
			c-0.2-0.6-0.6-1.1-1.1-1.6c-0.5-0.5-1.1-0.9-1.8-1.1c-0.4-0.1-0.8-0.2-1.1-0.2c0,0.3,0.1,0.7,0.3,1c0.2,0.6,0.6,1.1,1.1,1.6
			C34.8,26.8,35.4,27.2,36,27.4z M73.2,42.5c0.1,0.9-0.1,1.8-0.2,2.7c-0.2,1.6-0.5,3.1,1.2,4.2C74.2,47.1,73.8,44.7,73.2,42.5z
			 M45.5,67c-0.2-0.1-0.4-0.2-0.6-0.2c-0.2,0-0.5,0.1-0.6,0.2c-0.1,0.1-0.2,0.3-0.2,0.5c0,0.2,0.1,0.4,0.2,0.5
			c0.2,0.1,0.4,0.2,0.6,0.2c0.2,0,0.5-0.1,0.6-0.2c0.1-0.1,0.2-0.3,0.2-0.5C45.7,67.3,45.6,67.1,45.5,67z M44.9,65.1
			c0.7,0,1.3,0.3,1.8,0.7c0.5,0.4,0.8,1.1,0.8,1.8c0,0.7-0.3,1.3-0.8,1.8c-0.5,0.4-1.1,0.7-1.8,0.7c-0.7,0-1.3-0.3-1.8-0.7
			c-0.5-0.4-0.8-1.1-0.8-1.8c0-0.7,0.3-1.3,0.8-1.8C43.6,65.3,44.2,65.1,44.9,65.1z M40.9,67.1c-0.6,0.1-0.9,0.3-1,0.7
			c-0.1,0.2-0.1,0.4-0.1,0.7c0,0.3,0.1,0.6,0.3,0.8c0.3,0.6,0.9,1,1.6,1.1c0.4,0,0.7,0.4,0.7,0.7c0.1,0.7,0.4,1.2,0.9,1.4
			c0.3,0.2,0.6,0.3,1,0.3c0.4,0,0.7-0.1,1.1-0.2c0.5-0.2,0.9-0.6,1-1.2c0.1-0.5,0.6-0.7,1-0.6c0,0,0,0,0.1,0c0.5,0.2,1-0.1,1.3-0.5
			c0.1-0.2,0.2-0.4,0.3-0.6c0.1-0.2,0.1-0.4,0.1-0.6c0-0.4-0.2-0.7-0.7-0.8c-0.5-0.1-0.7-0.6-0.6-1c0.1-0.2,0.2-0.4,0.4-0.5
			c0.6-0.4,0.8-0.9,0.8-1.3c0-0.2-0.1-0.3-0.1-0.4c-0.1-0.1-0.2-0.2-0.3-0.3c-0.2-0.2-0.6-0.2-1,0c-0.4,0.2-0.8,0.1-1.1-0.2
			c-0.7-0.8-1.5-1.3-2.2-1.4c-0.5-0.1-0.9,0-1.3,0.2c-0.4,0.2-0.7,0.5-1,0.9c-0.3,0.5-0.5,1.2-0.3,1.9C41.7,66.6,41.4,67,40.9,67.1
			L40.9,67.1L40.9,67.1z M51.1,70.8c0.2-2.1,1.1-4,2.1-6c0.7-1.5,1.5-3,1.8-4.5c-1.8,1.4-4,2.3-6.3,2.6c0.3,0.1,0.6,0.2,0.9,0.4
			c0.3,0.2,0.6,0.5,0.8,0.8c0.2,0.3,0.3,0.7,0.4,1.1c0.1,0.7-0.1,1.4-0.6,2.1c0.5,0.4,0.7,1,0.7,1.6c0,0.4,0,0.8-0.1,1.2
			c0,0,0,0.1,0,0.1C50.8,70.5,51,70.7,51.1,70.8z M12.2,43.7l1.6-1.6h-2.1c-0.1,0-0.1,0-0.2,0C11.7,42.7,12,43.2,12.2,43.7z
			 M13.8,46.6l0.3-0.3h-0.5C13.7,46.4,13.7,46.5,13.8,46.6z M27.5,40.2l2.9,2.8c0.3,0.3,0.3,0.9,0,1.2c-0.2,0.2-0.4,0.2-0.6,0.2v0
			h-2.1l2.7,2.7c0,0,0.1,0.1,0.1,0.1c0.3-1.1,0.8-2.2,1.7-3.2c0.5-0.5,1.1-1,1.8-1.4C31.5,42.7,29.2,41.7,27.5,40.2z M16.9,49.1
			v-3.3c0,0.1-0.1,0.2-0.2,0.2l-1.9,2c0.3,0.4,0.6,0.7,0.9,1.1H16.9z M18.6,45.9v3.2h3.2l-3-3C18.7,46,18.6,45.9,18.6,45.9z
			 M16.9,41.2c0-0.5,0.4-0.8,0.8-0.8c0.5,0,0.8,0.4,0.8,0.8V45c0.1-0.3,0.4-0.4,0.7-0.4h2.5l-2.7-2.7c-0.2-0.2-0.3-0.4-0.3-0.6
			c0-0.5,0.4-0.8,0.8-0.8h2.1l-4.1-4.1l-4,4.1h2.1v0c0.2,0,0.4,0.1,0.6,0.2c0.3,0.3,0.3,0.9,0,1.2l-2.7,2.7h2.4v0
			c0.2,0,0.4,0.1,0.6,0.2c0.1,0.1,0.1,0.2,0.2,0.2V41.2z M48.6,35.4c-0.5,0-0.8-0.4-0.8-0.8c0-0.5,0.4-0.8,0.8-0.8h10.8
			c0.5,0,0.8,0.4,0.8,0.8c0,0.5-0.4,0.8-0.8,0.8H48.6z M58.7,36.1c0.5,0,0.8,0.4,0.8,0.8c0,0.5-0.4,0.8-0.8,0.8h-1.4
			c-0.5,0-0.8-0.4-0.8-0.8c0-0.5,0.4-0.8,0.8-0.8H58.7z M40.7,26.5c-0.1,0.4-0.2,0.8-0.2,1.2c0.3-0.1,0.7-0.2,1-0.3
			c0.6-0.3,1.1-0.6,1.6-1.2c0.5-0.6,0.9-1.2,1-1.8c0.1-0.4,0.2-0.8,0.2-1.2c-0.3,0.1-0.7,0.2-1,0.3c-0.6,0.3-1.1,0.6-1.6,1.2
			C41.2,25.3,40.9,25.9,40.7,26.5z M38.8,27.4c0-0.4,0.1-0.9,0.2-1.3c0.3-0.9,0.7-1.7,1.4-2.5c0.4-0.4,0.9-0.8,1.3-1.1h-6.7
			c0.7,0.3,1.3,0.8,1.9,1.3c0.7,0.7,1.1,1.4,1.5,2.2C38.7,26.5,38.8,26.9,38.8,27.4z M38.3,29.2c0.1,0,0.2,0,0.3,0l0.5,0.1l-0.1-0.6
			c0-0.2-0.1-0.3-0.1-0.5c0,0.1,0,0.2,0,0.2l-0.1,0.6L38.3,29.2z M35.9,29.5c0.3-0.1,0.5-0.2,0.8-0.2c-0.4,0-0.8-0.1-1.2-0.3
			c-0.9-0.3-1.7-0.8-2.4-1.5c-0.7-0.7-1.1-1.4-1.5-2.2c0-0.1,0-0.1-0.1-0.2v11.2h0.2l-0.1-0.5c-0.1-0.8,0-1.7,0.4-2.5
			c0.3-0.8,0.8-1.6,1.5-2.2C34.2,30.4,35,29.8,35.9,29.5z M37.6,30.9c-0.4,0-0.8,0.1-1.1,0.2c-0.6,0.2-1.2,0.6-1.8,1.1
			c-0.5,0.5-0.9,1.1-1.1,1.6c-0.1,0.3-0.2,0.7-0.3,1c0.4,0,0.8-0.1,1.1-0.2c0.6-0.2,1.2-0.6,1.8-1.1c0.5-0.5,0.9-1.1,1.1-1.6
			C37.5,31.6,37.5,31.3,37.6,30.9z M59.6,65.6c-2.4,2.3-4.8,4.6-5.2,7.8c1.2-1.8,3-3.3,4.7-4.7c2.8-2.4,5.5-4.6,4.9-8.1
			C62.9,62.4,61.3,64,59.6,65.6z M53.1,71.4c0.2-0.7,0.6-1.4,1-2.1c0.3-0.5,0.5-1,0.8-1.4c1.3-2.4,2.6-4.6,1.7-6.8
			c-0.4,1.6-1.1,3.1-1.8,4.6c-1,2.1-2.1,4.3-1.9,6.5C53,71.8,53,71.6,53.1,71.4z M4.8,4.4c0.5,0.1,0.8,0.5,0.7,0.9
			C5.5,5.8,5.1,6.1,4.6,6C4.5,6,4.4,6,4.4,6.1c0,0-0.1,0.1-0.1,0.1l0,0c0,0,0,0.1,0,0.1c0.1,0.1,0.1,0.1,0.2,0.1c0,0,0,0,0.1,0
			c0.4,0,0.8-0.1,1.1-0.3C6,6,6.2,5.7,6.2,5.4c0-0.3-0.1-0.7-0.3-0.9C5.7,4.2,5.3,4,4.9,3.9C4.4,3.9,4.1,3.4,4.1,3
			c0.1-0.5,0.5-0.8,0.9-0.7c0.9,0.1,1.6,0.5,2.1,1.1C7.7,4,8,4.7,7.9,5.6c-0.1,0.8-0.6,1.5-1.2,2C6.1,8,5.2,8.3,4.4,8.2l0,0
			C3.8,8.1,3.4,7.8,3,7.5C2.7,7.1,2.5,6.6,2.6,6l0,0C2.7,5.5,3,5,3.4,4.7C3.8,4.4,4.3,4.3,4.8,4.4z M61.2,26.6c0.1,0,0.1,0,0.2-0.1
			c-0.1-0.1-0.2-0.1-0.3-0.2C61.1,26.5,61.2,26.6,61.2,26.6z M59.2,28.5c0.1-0.3,0.3-0.5,0.5-0.8c-0.1-0.8-0.4-1.5-1-2
			c-0.6-0.6-1.5-1-2.4-1c-0.8,0-1.6,0.3-2.2,0.8c-0.5,0.5-0.9,1.1-1.1,1.8c1.1,0.2,2,0.8,2.6,1.9c0.2,0.4,0.1,0.9-0.3,1.2
			c-0.4,0.2-0.9,0.1-1.2-0.3c-0.4-0.7-1.1-1.1-1.9-1.1c-0.4,0-0.8,0.1-1.1,0.2c-0.3,0.1-0.6,0.4-0.9,0.6c-0.4,0.4-0.5,1-0.4,1.8
			l13.6-0.1c0.2-0.1,0.3-0.3,0.5-0.5c0.2-0.3,0.3-0.6,0.3-1c0-0.5-0.2-1-0.5-1.3c-0.3-0.3-0.8-0.5-1.3-0.5c-0.4,0-0.7,0.1-1,0.3
			c-0.3,0.2-0.5,0.5-0.7,0.8L59.2,28.5z M62.5,54.6c-0.1,0-0.1,0.1-0.2,0.3c-0.1,0.1-0.2,0.3-0.3,0.3c-0.4,0.2-0.9,0.1-1.2-0.3
			c-0.1-0.1-0.1-0.2-0.2-0.3c0,0-0.1,0-0.1,0c-0.1,0-0.1,0-0.2,0.1c0,0,0,0,0,0.1c0,0.5,0.6,1.1,1.3,1.8c0.7-0.7,1.3-1.3,1.3-1.8
			c0,0,0,0,0-0.1c0,0-0.1-0.1-0.2-0.1C62.6,54.6,62.5,54.6,62.5,54.6z M72.4,53.2C72.3,53.1,72,53,71.8,53c-0.2,0-0.5,0.1-0.6,0.2
			c-0.1,0.1-0.2,0.3-0.2,0.5c0,0.2,0.1,0.4,0.2,0.5c0.2,0.1,0.4,0.2,0.6,0.2c0.2,0,0.5-0.1,0.6-0.2c0.1-0.1,0.2-0.3,0.2-0.5
			C72.6,53.6,72.5,53.4,72.4,53.2z M73,51.6c0.2,0.1,0.4,0.3,0.6,0.4c0.2,0.2,0.3,0.4,0.4,0.6c0-0.3,0.1-0.6,0.1-0.9
			C73.7,51.7,73.4,51.6,73,51.6z M57.6,7.4l0.2,0.2c0.3,0.3,0.3,0.9,0,1.2C57.6,8.9,57.4,9,57.2,9v0h-2.1l2.7,2.7
			c0.3,0.3,0.3,0.9,0,1.2c-0.2,0.2-0.4,0.2-0.6,0.2v0h-2.7c0.4,0.8,0.7,1.7,0.9,2.6h14.1v-0.3h-1.6c-0.5,0-0.8-0.4-0.8-0.8
			s0.4-0.8,0.8-0.8h1.6v-0.5h-5.5c-0.5,0-0.8-0.4-0.8-0.8s0.4-0.8,0.8-0.8h5.5V7l-0.1,0.3c-0.3,1-0.8,1.9-1.6,2.5
			c-0.8,0.6-1.7,1-2.8,1c-1.3,0-2.4-0.5-3.2-1.3c-0.7-0.7-1.2-1.7-1.3-2.8l0,0l0,0l0,0l0,0l0,0l0,0l0,0l0,0l0,0l0,0l0,0l0,0l0,0l0,0
			l0,0l0,0l0,0l0,0l0,0l0,0l0,0l0,0v0l0,0l0,0l0,0l0,0l0,0l0,0l0,0l0,0l0,0l0,0l0,0l0,0l0,0l0,0l0,0l0,0l0,0l0,0l0,0l0,0l0,0l0,0
			l0,0l0,0l0,0l0,0l0,0l0,0l0,0l0,0l0,0l0,0l0,0l0,0l0,0l0,0l0,0l0,0l0,0l0,0l0,0l0,0l0,0l0,0l0,0l0,0l0,0l0,0l0,0l0,0l0,0l0,0l0,0
			l0,0c0,0,0,0,0,0c-0.2,0.2-0.4,0.2-0.6,0.2v0H57.6z M52.2,1.9l3.8,3.7h1.7l-2.7-2.7c-0.3-0.3-0.3-0.7-0.1-1H52.2z M47.4,4.4
			l2.5-2.5h-2.5V4.4z M50.2,8.8V6c0-0.5,0.4-0.8,0.8-0.8c0.5,0,0.8,0.4,0.8,0.8v3.9c0.6,0.5,1.1,1,1.5,1.6h1.7l-2.7-2.7
			c-0.2-0.2-0.3-0.4-0.3-0.6c0-0.5,0.4-0.8,0.8-0.8h2.1L51,3.2l-3.6,3.5v1C48.4,7.9,49.4,8.3,50.2,8.8z M48.2,31.5L48.2,31.5
			c-0.4,0.8-0.9,1.4-1.4,1.9c-0.4,0.3-0.9,0.6-1.3,0.8c0.4,0.7,0.7,1.5,0.9,2.2H47c0.4,0,0.7,0,1.1,0c0.2-0.2,0.4-0.3,0.6-0.3h6.5
			c0.5,0,0.8,0.4,0.8,0.8c0,0.5-0.4,0.8-0.8,0.8h-2c3.6,1.8,6.2,5.3,7,9.3l0.2-0.3c0.3-0.5,0.5-0.9,0.6-1.5c0.1-0.6,0.1-1.2,0.1-2
			c0-0.1,0-0.2,0-0.3c-0.1,0-0.1,0.1-0.2,0.1c-0.1,0.2-0.2,0.3-0.4,0.4c-0.4,0.2-0.9,0-1.1-0.4c-0.6-1.2-0.6-2.4-0.3-3.4
			c0.2-0.8,0.6-1.4,1.1-1.9c0.5-0.5,1.2-0.9,2-1c0.7-0.1,1.5,0,2.4,0.4c0.9-0.5,1.8-0.7,2.6-0.8c1.2-0.1,2.3,0.2,3.2,0.7
			c0.8,0.5,1.4,1.1,1.9,1.8c-0.5-1.2-1.2-2.4-1.9-3.6c-0.1,0-0.1,0-0.2,0h-6.2c-0.5,0-0.8-0.4-0.8-0.8c0-0.5,0.4-0.8,0.8-0.8H69
			c-0.9-1.3-1.9-2.4-3-3.5c0,0.6-0.2,1.2-0.6,1.7c-0.4,0.6-0.9,1-1.5,1.3l0,0c0,0-0.1,0-0.1,0l-15.1,0.1l-0.2-0.6
			C48.3,32.3,48.2,31.9,48.2,31.5z M46.9,28.8c-0.2,0.1-0.4,0.2-0.5,0.4c-0.4,0.3-0.7,0.7-0.9,1.2c-0.2,0.5-0.3,1-0.3,1.4
			c0,0.2,0,0.4,0,0.6c0.2-0.1,0.4-0.2,0.5-0.4c0.4-0.3,0.7-0.7,0.9-1.2c0.2-0.5,0.3-1,0.3-1.4C47,29.2,47,29,46.9,28.8z M40.8,71.9
			C40.8,71.9,40.8,72,40.8,71.9C40.8,72,40.8,71.9,40.8,71.9L40.8,71.9z M39.9,74.1c-0.8-2.1-2.6-3.6-4.5-5.1
			c-1.3-1.1-2.7-2.1-3.7-3.4c0.1,2.5,2.2,3.9,4.5,5.5C37.5,72.1,38.8,73,39.9,74.1z M33.6,74.4c-0.2-0.2-0.5-0.3-0.8-0.3
			c-0.3,0-0.6,0.1-0.8,0.3c-0.2,0.2-0.3,0.5-0.3,0.7c0,0.3,0.1,0.6,0.3,0.7c0.2,0.2,0.5,0.3,0.8,0.3c0.3,0,0.6-0.1,0.8-0.3
			c0.2-0.2,0.3-0.5,0.3-0.7C33.9,74.8,33.8,74.6,33.6,74.4z M32.7,72.4c0.8,0,1.5,0.3,2,0.8c0.5,0.5,0.8,1.2,0.8,2
			c0,0.7-0.2,1.3-0.6,1.7l4.9,0c-1-1.8-2.8-3.1-4.6-4.3c-1.4-1-2.8-1.9-3.7-3.1v3.1C31.9,72.5,32.3,72.4,32.7,72.4z M69.4,59.7
			c0.5,0.2,1.1,0.3,1.6,0.3c0-0.5-0.1-1-0.3-1.5c-0.3-0.7-0.7-1.4-1.3-2c-0.6-0.6-1.4-1.1-2.2-1.4c-0.5-0.2-1.1-0.3-1.6-0.3
			c0,0.5,0.1,1,0.3,1.5c0.3,0.7,0.7,1.4,1.3,2C67.8,59,68.6,59.5,69.4,59.7z M71.2,56.2c0.4,0.6,0.8,1.2,1,1.8
			c0.1,0.4,0.2,0.7,0.3,1.1c0.4-1.1,0.8-2.3,1-3.5c-0.5,0.4-1.1,0.7-1.7,0.7C71.6,56.2,71.4,56.2,71.2,56.2z M66.2,53.2
			c0.5,0.1,1,0.2,1.5,0.3c0.6,0.2,1.1,0.5,1.6,0.8c-0.1-0.2-0.1-0.4-0.1-0.6c0-0.7,0.3-1.3,0.8-1.8c0.3-0.3,0.8-0.6,1.2-0.7
			c-1.4-0.3-2.7-1-3.5-2.6l1.5-0.8c0.6,1.1,1.5,1.6,2.7,1.8c-1.1-1.4-0.8-3-0.5-4.7c0.1-0.8,0.3-1.7,0.2-2.5l0,0
			c-0.1-0.8-0.3-1.6-0.8-2.3c-0.4-0.6-0.9-1.2-1.5-1.6c-0.6-0.4-1.3-0.6-2.1-0.5c-0.7,0.1-1.5,0.3-2.3,0.8l-0.4,0.3l-0.4-0.3
			c-0.6-0.4-1.2-0.5-1.7-0.4c-0.4,0.1-0.8,0.3-1,0.5c-0.3,0.3-0.5,0.7-0.7,1.2c-0.1,0.4-0.1,0.8-0.1,1.2c0,0,0.1,0,0.1-0.1
			c1.3-0.6,2.7-0.5,4,0c1.2,0.4,2.2,1.1,2.7,1.8c0.7,0,1.3,0.3,1.7,0.7c0.3,0.3,0.4,0.7,0.4,1.1c0,0.4,0,0.8-0.1,1.1
			c-0.3,0.8-1,1.5-2.1,1.5c-0.5,0-0.9-0.3-0.9-0.8c0-0.5,0.3-0.9,0.8-0.9c0.3,0,0.5-0.2,0.6-0.4c0-0.1,0.1-0.2,0-0.4
			c0-0.1,0-0.2-0.1-0.2c-0.1-0.1-0.2-0.1-0.5,0l-0.7,0.2l-0.3-0.6c0,0-0.1-0.1-0.1-0.1c-0.4-0.5-1.1-1-2.1-1.4
			c-0.6-0.2-1.2-0.3-1.8-0.3c0.2,0.1,0.4,0.4,0.4,0.7c0,0.8,0,1.6-0.1,2.3c-0.1,0.5-0.2,1-0.5,1.5l0.8,0.9l0,0.3
			c0,0.3,0.1,0.7,0.2,1.1c0.1,0.2,0.1,0.5,0.2,0.7c0,0,0.1,0,0.1,0c0.5,0,1.1-0.1,1.5-0.3c0.4-0.2,0.7-0.5,0.7-0.8
			c0-0.1,0-0.1,0-0.2c0-0.5,0.4-0.8,0.9-0.8c0.5,0,0.8,0.4,0.8,0.9c0,0.2,0,0.3-0.1,0.5c-0.2,0.6-0.5,1.1-1,1.5L66.2,53.2z M64,53.4
			l0.5-0.1l0-1.6c-0.4,0.1-0.9,0.1-1.3,0.1c-0.3,0-0.6-0.1-0.8-0.1L62,51.5l-0.2-0.4c-0.2-0.5-0.3-1-0.4-1.4c-0.1-0.3-0.1-0.7-0.2-1
			l-1.1-1.1c0.1,0.7,0.2,1.4,0.2,2.1c0,1.1-0.1,2.2-0.4,3.3c0.2-0.1,0.4-0.1,0.6-0.1c0.4,0,0.8,0.1,1.1,0.3c0.3-0.2,0.6-0.3,1.1-0.3
			C63.2,52.9,63.6,53.1,64,53.4L64,53.4z M64.5,57.4c-0.1-0.2-0.1-0.3-0.2-0.5c-0.1-0.2-0.2-0.5-0.2-0.7c-0.5,0.7-1.2,1.4-1.9,2
			c-0.3,0.3-0.9,0.3-1.2,0l0,0c-0.9-0.8-1.7-1.6-2.1-2.4c-0.5,1-1.1,1.9-1.9,2.7c1.8,2,2,3.9,1.5,5.9l0,0c2.1-2,4.1-4,4.8-6.4
			c0.1-0.4,0.6-0.7,1-0.6C64.4,57.4,64.5,57.4,64.5,57.4z M35.9,63c0.1,0.1,0.1,0.2,0.2,0.3c0.2,0.2,0.5,0.3,0.8,0.3
			c0.3,0,0.6-0.1,0.8-0.3c0.1-0.1,0.2-0.2,0.3-0.3H35.9z M39.8,63c-0.1,0.7-0.5,1.2-0.9,1.6c-0.5,0.4-1.2,0.7-1.9,0.7
			c-0.8,0-1.5-0.3-2-0.8c-0.4-0.4-0.7-0.9-0.8-1.5h-2c0.8,1.9,2.5,3.3,4.3,4.7c0.5,0.4,1.1,0.9,1.6,1.3c0-0.2-0.1-0.3-0.1-0.5
			c0-0.5,0-1.1,0.3-1.6c0.3-0.6,0.8-1.1,1.5-1.4c0-0.9,0.2-1.7,0.6-2.3c0.1-0.1,0.1-0.2,0.2-0.3H39.8z M8.5,8.1
			C8.1,7.8,8,7.3,8.2,6.9c0.2-0.4,0.8-0.5,1.2-0.3l3.5,2c0.4,0.2,0.5,0.8,0.3,1.2c-0.2,0.4-0.8,0.5-1.2,0.3L8.5,8.1z M48.8,76.8
			c-0.1-0.2-0.2-0.4-0.3-0.5C48.3,76.1,48,76,47.7,76c0,0,0,0-0.1,0c-0.3,0-0.5,0.1-0.7,0.3c-0.1,0.1-0.2,0.3-0.3,0.5H47
			C47.6,76.9,48.2,76.9,48.8,76.8z M44.9,76.9c0.1-0.7,0.4-1.3,0.8-1.7c0.5-0.5,1.1-0.8,1.8-0.8c0.8-0.1,1.5,0.2,2.1,0.7
			c0.5,0.4,0.8,1,1,1.6c0.8-0.1,1.6-0.2,2.4-0.4c0,0,0,0,0-0.1c-0.1-0.1-0.2-0.2-0.3-0.3l-0.5,0.2c-0.3-0.6-0.5-1.2-0.8-1.7
			c-0.5-1.1-0.9-1.9-1.7-2.7c-0.5,0.5-1.2,0.8-2,0.8c-0.4,0.7-1,1.3-1.7,1.6c-0.6,0.3-1.2,0.4-1.8,0.4c-0.6,0-1.3-0.2-1.8-0.5
			c-0.3-0.2-0.7-0.5-0.9-0.8c0.4,1.1,0.7,2.3,0.5,3.7H44.9z M41.6,36.3c0,0,0-0.1,0-0.1c-0.1-0.6-0.3-1.1-0.6-1.5
			c-0.2-0.2-0.3-0.4-0.5-0.5c-0.1,0.2-0.2,0.4-0.2,0.6c-0.1,0.5-0.1,1,0,1.6l0,0H41.6z M38.4,36.3c-0.1-0.7-0.1-1.3,0.1-2
			c0.2-0.7,0.5-1.4,1-2l0.4-0.5l0.6,0.3c0.7,0.3,1.3,0.8,1.8,1.5c0.5,0.6,0.8,1.4,0.9,2.2c0,0.1,0,0.3,0.1,0.4h1.3
			c-0.3-0.9-0.9-1.9-1.5-2.8c-0.9-1.2-1.9-2.2-2.9-2.6c-0.4-0.2-0.6-0.7-0.4-1.1c0.1-0.2,0.2-0.3,0.3-0.4c-0.1,0-0.2,0-0.3,0l-0.5,0
			l0.1,0.6c0.1,0.8,0,1.7-0.4,2.5c-0.3,0.8-0.8,1.6-1.5,2.2c-0.7,0.7-1.5,1.2-2.4,1.5l0,0H38.4z M69.3,65.2c0-0.1-0.1-0.2-0.1-0.3
			c-0.2-0.5-0.5-1-0.8-1.3c-0.2-0.2-0.3-0.3-0.5-0.4c-0.1,0.2-0.1,0.5-0.1,0.7c0,0.5,0,1.1,0.3,1.6c0.1,0.2,0.2,0.4,0.3,0.6
			c0,0.1,0.1,0.2,0.2,0.2C68.7,66,69,65.6,69.3,65.2z M11.7,27.4h3.6v0c0,0,0,0,0,0L13.2,24l-3.1,3v2l0.8-1.2
			C11.1,27.6,11.3,27.4,11.7,27.4z M13.7,29.1h-1.6l-0.4,0.6h1.6L13.7,29.1z M20.7,26h-1.9c-0.5,0-0.8-0.4-0.8-0.8v-1.5h-3l1.8,2.8
			h7.1L22,23.6h-0.5v1.5C21.5,25.6,21.1,26,20.7,26z M19.8,21.9v-0.8h-0.2v0.8H19.8z M19.6,24.3h0.2v-0.7h-0.2V24.3z M16.8,34.9
			h-6.6c0,2,0.4,4,0.9,5.8c0,0,0.1-0.1,0.1-0.1L16.8,34.9z M24.3,34.9h-5.6l3.2,3.1l1.1-1.2c0.3-0.3,0.9-0.3,1.2,0l2.5,2.4
			C25.5,38.1,24.7,36.6,24.3,34.9z M16.6,29c0-0.5,0.4-0.8,0.8-0.8c0.5,0,0.8,0.4,0.8,0.8v4.2h5.7c0-0.2,0-0.4,0-0.7v-4.4h-7.8
			c0,0-0.1,0-0.1,0c0,0.2,0,0.4-0.1,0.6l-1.4,2.2c-0.1,0.3-0.4,0.4-0.7,0.4h-3.6v0c0,0-0.1,0-0.1,0v1.8h6.5V29z M21.9,31.8h-1.3
			c-0.5,0-0.8-0.4-0.8-0.8v-1.4c0-0.5,0.4-0.8,0.8-0.8h1.3c0.5,0,0.8,0.4,0.8,0.8V31C22.7,31.4,22.3,31.8,21.9,31.8z M9.5,6.1
			C9.1,6,8.8,5.6,8.9,5.1c0.1-0.5,0.6-0.7,1-0.6l4.2,1c0.5,0.1,0.7,0.6,0.6,1c-0.1,0.5-0.6,0.7-1,0.6L9.5,6.1z M7.2,9.8
			C6.9,9.4,6.9,8.9,7.3,8.6c0.4-0.3,0.9-0.3,1.2,0.1l2.4,2.7c0.3,0.4,0.3,0.9-0.1,1.2c-0.4,0.3-0.9,0.3-1.2-0.1L7.2,9.8z M10.2,4
			C9.7,4,9.4,3.6,9.4,3.2c0-0.5,0.4-0.8,0.8-0.8l4.2,0c0.5,0,0.8,0.4,0.8,0.8c0,0.5-0.4,0.8-0.8,0.8L10.2,4z M26.9,53.4h1.9
			c0.5,0,0.8,0.4,0.8,0.8c0,0.5-0.4,0.8-0.8,0.8h-4.5c2.5,1,5.2,1.5,8.1,1.5h1l-0.1-2.7c-0.6-0.2-1-0.4-1.5-0.8
			c-0.5-0.5-0.9-1.2-1.2-2c-0.2-0.7-0.4-1.6-0.3-2.4c0-0.1,0-0.2,0-0.3c-0.2,0.1-0.3,0.2-0.5,0.2v0h-2.9l0.1,4.5
			C26.9,53.2,26.9,53.3,26.9,53.4z M21.5,53.8c0.1-0.2,0.4-0.4,0.7-0.4h3c0-0.1,0-0.1,0-0.2l-0.2-5.3c0,0,0-0.1,0-0.1
			c0-0.5,0.4-0.8,0.8-0.8h1.8L25,44.3c-0.2-0.2-0.3-0.4-0.3-0.6c0-0.5,0.4-0.8,0.8-0.8h2.1l-4.1-4.1L23,39.3l1.4,1.4
			c0.3,0.3,0.3,0.9,0,1.2c-0.2,0.2-0.4,0.2-0.6,0.2v0h-2.1l2.7,2.7c0.3,0.3,0.3,0.9,0,1.2c-0.2,0.2-0.4,0.2-0.6,0.2v0h-2.5l3.1,3.1
			c0.3,0.3,0.3,0.9,0,1.2c-0.2,0.2-0.4,0.2-0.6,0.2v0h-5.3v1C19.5,52.5,20.5,53.2,21.5,53.8z M60.8,72.1c-0.1,0.3-0.1,0.6-0.2,0.9
			c0.2,0,0.5-0.1,0.7-0.2c0.5-0.3,0.9-0.6,1.3-0.9c0.1-0.1,0.1-0.1,0.2-0.2c0.4-0.5,0.8-1,0.9-1.6c0.1-0.3,0.1-0.6,0.2-0.9
			c-0.3,0-0.5,0.1-0.8,0.3c-0.5,0.2-1,0.6-1.4,1C61.3,70.9,61,71.5,60.8,72.1z M62.6,67.8c0.7-0.3,1.4-0.4,2.1-0.4l0.6,0l0.1,0.6
			c0.1,0.4,0.1,0.9,0.1,1.4c0.6-0.6,1.2-1.1,1.7-1.7c-0.2-0.2-0.3-0.4-0.5-0.7c-0.2-0.3-0.3-0.6-0.4-0.9c-0.3-0.8-0.4-1.6-0.4-2.4
			c0.1-0.8,0.3-1.6,0.7-2.2l0.4-0.5l0.6,0.2c0.7,0.2,1.3,0.6,1.9,1.2c0.3,0.3,0.6,0.7,0.8,1.1c0.3-0.6,0.7-1.2,1-1.8
			c-0.8,0.1-1.7-0.1-2.6-0.4c-1-0.4-2-1-2.8-1.8c-0.3-0.3-0.5-0.6-0.8-0.9C66.8,62.7,65.1,65.4,62.6,67.8z M59.1,74.1
			c-0.2-0.8-0.1-1.6,0.1-2.5c0.1-0.4,0.3-0.8,0.5-1.2c-1.8,1.6-3.7,3.2-4.6,5.3C56.4,75.2,57.8,74.7,59.1,74.1z M52.4,23
			c0,0.1,0,0.1,0,0.2c-0.2,0.7-0.6,1.2-1.1,1.6c-0.5,0.4-1.2,0.5-1.9,0.5c0,0-0.1,0-0.1,0c-0.7-0.1-1.4-0.5-1.8-1
			c-0.4-0.5-0.7-1.1-0.6-1.8H46c0.1,0.8,0.1,1.6-0.2,2.5c-0.3,0.9-0.7,1.7-1.4,2.5c-0.6,0.7-1.4,1.2-2.2,1.6c-0.5,0.2-1,0.4-1.5,0.4
			l0,0c0.9,0.4,1.8,1.1,2.6,2c0.1-0.6,0.2-1.1,0.5-1.7c0.3-0.7,0.8-1.4,1.4-1.8c0.6-0.5,1.3-0.8,2-0.9l0.6-0.1l0.3,0.6
			c0.3,0.5,0.4,1.2,0.4,1.8c0.1-0.2,0.2-0.4,0.4-0.5c0.4-0.5,0.9-0.9,1.5-1.1c0.3-0.1,0.6-0.2,0.9-0.3l-0.1,0
			c0.2-1.2,0.8-2.3,1.7-3.1c0.4-0.3,0.8-0.6,1.2-0.8C53.6,23.3,53,23.1,52.4,23z M50.7,22.8C50.7,22.8,50.7,22.7,50.7,22.8
			c-0.7-0.2-1.5-0.3-2.3-0.3c0,0.3,0.1,0.5,0.2,0.7c0.2,0.2,0.5,0.4,0.8,0.4c0.3,0,0.6,0,0.8-0.2C50.5,23.3,50.6,23.1,50.7,22.8z
			 M18,15.4c-0.1-0.3-0.4-0.6-0.6-0.7c-0.3-0.2-0.6-0.3-0.9-0.3c-0.5,0-0.9,0.2-1.2,0.5c-0.3,0.3-0.5,0.7-0.5,1.2
			c0,0.3,0.1,0.7,0.3,0.9c0.1,0.2,0.3,0.3,0.4,0.4l8.6,0.1v-6L24,11.6c-0.3-0.2-0.5-0.3-0.8-0.4c-0.3-0.1-0.6-0.1-0.9-0.1
			c-0.9,0-1.7,0.4-2.2,0.9c-0.5,0.5-0.8,1.2-0.9,1.9c0.2,0.2,0.3,0.5,0.4,0.7L18,15.4z M10.2,21c0.3,0,0.5-0.1,0.7-0.3
			c0.2-0.2,0.3-0.4,0.4-0.7c0-0.3,0-0.6-0.2-0.9c-0.2-0.2-0.4-0.4-0.7-0.4l0,0c0,0,0,0,0,0c0,0-0.1,0-0.1,0V21z M24,9l-7.6,0.1
			l-0.2-0.6c-0.5-1.3-0.2-2.4,0.5-3.2c0.3-0.4,0.7-0.7,1.2-0.9c0.2-0.1,0.3-0.1,0.5-0.2c0.2-0.9,0.6-1.7,1.3-2.3H1.9v5.8
			c4.5,0.9,7.9,4.7,8.2,9.3c0.1,0,0.2,0,0.2,0l0.1,0l0.1,0c0.8,0.1,1.4,0.5,1.8,1.1c0.4,0.6,0.6,1.3,0.5,2.1
			c-0.1,0.7-0.4,1.3-0.9,1.8c-0.5,0.5-1.1,0.7-1.8,0.7h0v1.9l2.5-2.4c0.1-0.1,0.2-0.2,0.4-0.2c0.1-0.1,0.3-0.1,0.4-0.1v0h4.5v-1.7
			c0-0.5,0.4-0.8,0.8-0.8h1.9c0.5,0,0.8,0.4,0.8,0.8v1.7h1c0.3,0,0.6,0.2,0.7,0.4l0.8,1.3v-4.4l-8.8-0.1c0,0-0.1,0-0.1,0l0,0
			c-0.6-0.3-1.1-0.7-1.5-1.3c-0.3-0.5-0.5-1.2-0.5-1.8c0-0.9,0.4-1.8,1-2.4c0.6-0.6,1.5-1,2.4-1c0.4,0,0.8,0.1,1.2,0.2
			c0.2-0.8,0.7-1.5,1.2-2c0.9-0.9,2.1-1.4,3.4-1.4c0.5,0,0.9,0.1,1.4,0.2c0.1,0,0.3,0.1,0.4,0.1V9z M26,7.8c0,0.1,0,0.2,0,0.3
			c0,0.1,0,0.2,0,0.3v9.3v9l0.1,0.1c0.2,0.3,0.2,0.7-0.1,1v4.7c0,4.5,3.7,8.2,8.2,8.2h13.7v17.7H32.3c-9,0-16.9-5-21-12.3
			c-0.3-0.1-0.4-0.4-0.4-0.7c0,0,0,0,0-0.1c-1.7-3.3-2.6-7-2.6-10.9c0-5.6,0-11.1,0-16.7h0c0-4.5-3.7-8.2-8.2-8.2V0h26V7.8z
			 M22.1,5.7c0.2,0.4,0.1,0.9-0.3,1.2c-0.4,0.2-0.9,0.1-1.2-0.3c-0.3-0.5-0.7-0.7-1.2-0.7c-0.3,0-0.5,0-0.7,0.2
			c-0.2,0.1-0.4,0.2-0.6,0.4c-0.2,0.2-0.3,0.6-0.3,1L24,7.3V3.2l0,0c-0.2-0.2-0.5-0.4-0.7-0.5c-0.3-0.1-0.6-0.2-0.9-0.2
			c-0.6,0-1.1,0.2-1.5,0.6c-0.3,0.3-0.6,0.6-0.7,1C20.9,4.4,21.6,4.9,22.1,5.7z M44.8,42.7C44.8,42.8,44.7,42.8,44.8,42.7
			c-0.1,0.1-0.1,0.1-0.1,0.1c-0.2,0.2-0.2,0.5-0.2,0.8c0,0.3,0.2,0.6,0.4,0.8c0.2,0.2,0.5,0.3,0.8,0.3c0.1,0,0.2,0,0.2,0v-1.9H44.8z
			 M45.9,46.4c-0.1,0-0.1,0-0.2,0c-0.7,0-1.3-0.2-1.9-0.6c-0.6-0.5-1-1.2-1.1-1.9c-0.1-0.4,0-0.8,0.1-1.2h-2.1
			c0.1,0.1,0.2,0.2,0.3,0.3c0.6,0.5,1.1,1.2,1.5,2.2c0.2,0.4,0,0.9-0.4,1.1c-0.2,0.1-0.4,0.1-0.5,0.1c-0.1,0.2-0.4,0.4-0.7,0.4
			l-1.8,0l-1.6,1.8c-0.1,0.2-0.3,0.3-0.5,0.3c-0.5,0.1-0.7,0.3-0.9,0.5c-0.1,0.1-0.1,0.2-0.1,0.4c0,0.1,0,0.2,0.1,0.3
			c0.1,0.1,0.2,0.2,0.4,0.3c0.5,0.1,0.7,0.6,0.6,1c-0.1,0.5-0.6,0.7-1,0.6c-0.7-0.2-1.2-0.6-1.5-1.1c-0.2-0.4-0.3-0.8-0.3-1.2
			c0-0.4,0.1-0.8,0.4-1.2c0.3-0.5,0.9-0.9,1.7-1.2l1.7-1.9c0.2-0.2,0.4-0.3,0.7-0.3l1.9,0c-0.2-0.3-0.4-0.6-0.7-0.8
			c-0.6-0.6-1.3-0.8-2.1-0.9c-0.8,0-1.6,0.1-2.4,0.5c-0.8,0.4-1.6,0.9-2.1,1.5c-0.9,1-1.4,2.3-1.5,3.5c0,0.6,0,1.3,0.2,1.8
			c0.2,0.5,0.4,0.9,0.7,1.2c0.3,0.3,0.7,0.5,1.2,0.5l0.8,0l0.2,4.2h3.2l0.2-2.6l0,0c0-0.4,0.4-0.8,0.8-0.8l2.3-0.1l0.7-1.8
			c0-0.1,0.1-0.2,0.2-0.3l0.4-0.4c-0.1-0.2-0.2-0.3-0.4-0.5c-0.6-0.8-1.2-1.6-1.2-2.8c0-0.5,0.4-0.8,0.8-0.8c0.5,0,0.8,0.4,0.8,0.8
			c0,0.6,0.5,1.2,0.9,1.8c0.3,0.4,0.6,0.8,0.8,1.2c0.2,0.3,0.1,0.7-0.1,1l0,0L43.7,52l-0.8,2.2c-0.1,0.3-0.4,0.5-0.8,0.6l0,0
			L40,54.9l-0.1,1.7h6V46.4z M45.5,0h26v17.7H53.7c0-4.5-3.7-8.2-8.2-8.2V0z"/>
	</defs>
	<clipPath id="SVGID_2_">
		<use xlink:href="#SVGID_1_"  style="overflow:visible;"/>
	</clipPath>
	<linearGradient id="SVGID_3_" gradientUnits="userSpaceOnUse" x1="11.9734" y1="13.9002" x2="84.3795" y2="84.6958">
		<stop  offset="0" style="stop-color:#C57938"/>
		<stop  offset="1" style="stop-color:#622B02"/>
	</linearGradient>
	<rect class="st0" width="76.1" height="78.8"/>
</g>
</svg>
