<?xml version="1.0" encoding="utf-8"?>
<!-- Generator: Adobe Illustrator 23.0.0, SVG Export Plug-In . SVG Version: 6.00 Build 0)  -->
<svg version="1.1" id="Слой_1" xmlns="http://www.w3.org/2000/svg" xmlns:xlink="http://www.w3.org/1999/xlink" x="0px" y="0px"
	 viewBox="0 0 164.7 43.4" style="enable-background:new 0 0 164.7 43.4;" xml:space="preserve">
<style type="text/css">
	.st0{fill:#310000;}
</style>
<path class="st0" d="M103.4,31.1h1.6v10h0l6.3-10h1.9v12.3h-1.6v-10h0l-6.3,10h-1.9V31.1z M85.6,31.1h1.6v5.1h6.5v-5.1h1.6v12.3
	h-1.6v-5.8h-6.5v5.8h-1.6V31.1z M67.5,43.4l4.6-12.5h2l4.5,12.5h-1.8l-1.3-3.8h-4.8l-1.4,3.8H67.5z M75,38.3l-1.9-5.5l-2.1,5.5H75z
	 M53.3,42h3.6c0.3,0,0.6,0,0.9-0.1c0.3-0.1,0.5-0.2,0.8-0.4c0.2-0.2,0.4-0.4,0.5-0.7c0.1-0.3,0.2-0.6,0.2-1c0-0.4-0.1-0.7-0.2-1
	c-0.1-0.3-0.3-0.5-0.5-0.7c-0.2-0.2-0.5-0.3-0.9-0.4c-0.3-0.1-0.7-0.1-1.1-0.1h-3.2V42z M51.7,31.1h8.4v1.4h-6.8v3.6h3.4
	c0.7,0,1.3,0.1,1.9,0.3c0.5,0.2,1,0.4,1.3,0.7c0.4,0.3,0.6,0.7,0.8,1.1c0.2,0.4,0.3,0.9,0.3,1.5c0,0.5-0.1,1-0.3,1.5
	c-0.2,0.4-0.4,0.8-0.8,1.1c-0.3,0.3-0.7,0.6-1.2,0.7c-0.5,0.2-1,0.3-1.7,0.3h-5.4V31.1z M155.6,14h9v1.4h-7.3v3.8h6.8v1.4h-6.8v4.2
	h7.5v1.4h-9.1V14z M137.7,14h1.6v10h0l6.3-10h1.9v12.3h-1.6v-10h0l-6.3,10h-1.9V14z M120.8,14h1.6v6l6-6h2.3l-5.1,5l5.3,7.3h-2.1
	l-4.3-6.2l-2,1.9v4.3h-1.6V14z M104,20.1c0,0.8,0.1,1.5,0.3,2.1c0.2,0.6,0.5,1.1,0.8,1.6c0.4,0.4,0.8,0.8,1.3,1
	c0.5,0.2,1.1,0.4,1.7,0.4c0.5,0,1-0.1,1.4-0.3c0.4-0.2,0.8-0.4,1.1-0.7c0.3-0.3,0.5-0.7,0.7-1.1c0.2-0.4,0.3-0.8,0.4-1.2h1.6
	c0,0.4-0.1,0.7-0.2,1.1c-0.1,0.4-0.3,0.7-0.5,1.1c-0.2,0.3-0.4,0.7-0.7,1c-0.3,0.3-0.6,0.6-1,0.8c-0.4,0.2-0.8,0.4-1.2,0.5
	c-0.5,0.1-1,0.2-1.5,0.2c-0.4,0-0.8,0-1.2-0.1c-0.4-0.1-0.9-0.2-1.3-0.4c-0.4-0.2-0.8-0.4-1.2-0.7c-0.4-0.3-0.7-0.7-1-1.2
	c-0.3-0.5-0.5-1-0.7-1.7c-0.2-0.6-0.3-1.4-0.3-2.2c0-0.8,0.1-1.6,0.2-2.2c0.2-0.7,0.4-1.2,0.7-1.7c0.3-0.5,0.6-0.9,1-1.2
	c0.4-0.3,0.8-0.6,1.2-0.8c0.4-0.2,0.9-0.4,1.3-0.5c0.5-0.1,0.9-0.1,1.4-0.1c0.6,0,1.1,0.1,1.5,0.2c0.5,0.1,0.9,0.3,1.2,0.5
	c0.4,0.2,0.7,0.4,1,0.7c0.3,0.3,0.5,0.5,0.7,0.8c0.2,0.3,0.3,0.6,0.4,0.9c0.1,0.3,0.2,0.6,0.2,0.9h-1.6c-0.1-0.4-0.3-0.8-0.5-1.1
	c-0.2-0.3-0.5-0.6-0.7-0.8c-0.3-0.2-0.6-0.4-1-0.5c-0.4-0.1-0.8-0.2-1.2-0.2c-0.6,0-1.2,0.1-1.7,0.4c-0.5,0.2-0.9,0.6-1.3,1
	c-0.4,0.4-0.6,1-0.8,1.6C104.1,18.6,104,19.3,104,20.1z M90.8,19.2c0.5,0,1-0.1,1.3-0.2c0.3-0.1,0.6-0.2,0.8-0.4
	c0.2-0.2,0.3-0.4,0.4-0.6c0.1-0.2,0.1-0.5,0.1-0.8c0-0.3,0-0.5-0.1-0.8c-0.1-0.2-0.2-0.4-0.4-0.6c-0.2-0.2-0.5-0.3-0.8-0.4
	c-0.3-0.1-0.7-0.1-1.2-0.1h-3.1v3.8H90.8z M91,24.8c0.5,0,1-0.1,1.4-0.2c0.4-0.1,0.7-0.2,0.9-0.4c0.2-0.2,0.4-0.4,0.5-0.7
	c0.1-0.3,0.2-0.6,0.2-0.9s-0.1-0.6-0.2-0.9c-0.1-0.3-0.3-0.5-0.5-0.7c-0.2-0.2-0.5-0.3-0.9-0.4c-0.4-0.1-0.8-0.2-1.4-0.2h-3.3v4.3
	H91z M86.1,14h4.4c0.5,0,0.9,0,1.3,0c0.4,0,0.7,0.1,1,0.2c0.3,0.1,0.6,0.2,0.8,0.4c0.3,0.2,0.5,0.4,0.7,0.6c0.2,0.2,0.4,0.5,0.5,0.8
	c0.1,0.3,0.2,0.7,0.2,1.1c0,0.2,0,0.4-0.1,0.7c-0.1,0.2-0.1,0.5-0.3,0.7c-0.1,0.2-0.3,0.5-0.5,0.7c-0.2,0.2-0.5,0.4-0.8,0.5
	c0.3,0.1,0.5,0.2,0.8,0.4c0.3,0.2,0.5,0.3,0.7,0.6c0.2,0.2,0.4,0.5,0.5,0.9c0.1,0.3,0.2,0.7,0.2,1.2c0,0.3,0,0.5-0.1,0.8
	c-0.1,0.3-0.2,0.6-0.3,0.8c-0.1,0.3-0.3,0.5-0.5,0.8c-0.2,0.2-0.5,0.4-0.8,0.6c-0.3,0.2-0.7,0.3-1.1,0.4c-0.4,0.1-0.9,0.2-1.4,0.2
	h-5.2V14z M69.2,14h9v1.4h-7.3v3.8h6.8v1.4h-6.8v4.2h7.5v1.4h-9.1V14z M51.1,26.3l4.6-12.5h2l4.5,12.5h-1.8L59,22.5h-4.8l-1.4,3.8
	H51.1z M58.6,21.2l-1.9-5.5l-2.1,5.5H58.6z M34.2,14H44v12.3h-1.6V15.4h-6.5v10.9h-1.6V14z M16.1,26.3l4.6-12.5h2l4.5,12.5h-1.8
	l-1.3-3.8h-4.8l-1.4,3.8H16.1z M23.6,21.2l-1.9-5.5l-2.1,5.5H23.6z M7.4,21.2c-0.2,0.1-0.4,0.2-0.6,0.2c-0.2,0.1-0.5,0.1-0.7,0.2
	c-0.3,0.1-0.6,0.1-0.9,0.1c-0.3,0-0.6,0.1-0.9,0.1c-0.6,0-1.1-0.1-1.7-0.2c-0.5-0.1-1-0.3-1.4-0.6c-0.4-0.3-0.7-0.7-1-1.2
	C0.1,19.4,0,18.8,0,18V14h1.6v3.9c0,0.5,0.1,0.9,0.2,1.2c0.1,0.3,0.3,0.6,0.6,0.8c0.3,0.2,0.6,0.3,1,0.4c0.4,0.1,0.8,0.1,1.3,0.1
	c0.3,0,0.5,0,0.8-0.1c0.3,0,0.5-0.1,0.8-0.1C6.5,20.1,6.8,20.1,7,20c0.2-0.1,0.4-0.1,0.5-0.2V14h1.6v12.3H7.4V21.2z"/>
<path class="st0" d="M112.5,0.1h1l1.5,4.5h0l1.5-4.5h1v5.3h-0.7V1h0l-1.5,4.5h-0.7L113.2,1h0v4.5h-0.7V0.1z M107.5,0.1h3.9v0.6h-3.2
	v1.6h2.9V3h-2.9v1.8h3.2v0.6h-3.9V0.1z M102.1,5.4l2-5.4h0.9l1.9,5.4h-0.8l-0.6-1.6h-2.1l-0.6,1.6H102.1z M105.3,3.3l-0.8-2.4
	l-0.9,2.4H105.3z M100.7,0.8h-1.9c0,0.4,0,0.8,0,1.2c0,0.4,0,0.8-0.1,1.1c0,0.4-0.1,0.7-0.1,1c-0.1,0.3-0.1,0.6-0.3,0.8
	c-0.1,0.2-0.2,0.4-0.4,0.5c-0.2,0.1-0.4,0.2-0.6,0.2c-0.1,0-0.1,0-0.2,0c0,0-0.1,0-0.2,0V4.8c0,0,0.1,0,0.1,0c0,0,0.1,0,0.2,0
	c0.1,0,0.2,0,0.3-0.1c0.1-0.1,0.1-0.2,0.2-0.3c0.1-0.1,0.1-0.3,0.1-0.5C98,3.7,98,3.5,98,3.3c0-0.2,0-0.5,0.1-0.7c0-0.3,0-0.5,0-0.8
	c0-0.3,0-0.5,0-0.8c0-0.3,0-0.5,0-0.8h3.3v5.3h-0.7V0.8z M92.5,0.1h3.9v0.6h-3.2v1.6h2.9V3h-2.9v1.8h3.2v0.6h-3.9V0.1z M88.6,2.4
	h0.5L91,0.1h0.9l-2.1,2.5l2.1,2.8h-1L89.1,3h-0.5v2.4h-0.7V3h-0.5l-1.8,2.4h-1l2.2-2.8l-2.2-2.6h0.9l1.9,2.3h0.5V0.1h0.7V2.4z
	 M81.3,0.8h-1.6c-0.1,0-0.1,0-0.2,0c-0.1,0-0.1,0-0.2,0c-0.1,0-0.1,0-0.2,0c-0.1,0-0.1,0-0.2,0.1c-0.1,0-0.1,0.1-0.2,0.2
	c-0.1,0.1-0.1,0.1-0.1,0.2c0,0.1-0.1,0.1-0.1,0.2c0,0.1,0,0.2,0,0.2c0,0.1,0,0.1,0,0.2c0,0.1,0,0.1,0,0.2c0,0.1,0.1,0.1,0.1,0.2
	c0,0.1,0.1,0.1,0.2,0.2c0.1,0,0.1,0.1,0.2,0.1c0.1,0,0.1,0,0.2,0.1c0.1,0,0.2,0,0.2,0c0.1,0,0.2,0,0.3,0h1.5V0.8z M82,5.4h-0.7V3.2
	H80c-0.1,0-0.3,0-0.4,0c-0.1,0-0.2,0-0.3,0c-0.1,0-0.1,0-0.2,0c0,0-0.1,0-0.1,0.1c-0.1,0-0.1,0.1-0.1,0.1c0,0-0.1,0.1-0.1,0.2
	c0,0.1-0.1,0.2-0.1,0.2c0,0.1,0,0.2,0,0.4l0,0.6c0,0.1,0,0.1,0,0.2c0,0.1,0,0.1,0,0.2c0,0,0,0.1,0,0.1c0,0,0,0.1-0.1,0.1h-0.8
	c0,0,0.1-0.1,0.1-0.1c0,0,0.1-0.1,0.1-0.1c0-0.1,0-0.1,0.1-0.2c0-0.1,0-0.2,0-0.3L78,4c0-0.1,0-0.2,0-0.3c0-0.1,0.1-0.2,0.1-0.3
	c0.1-0.1,0.1-0.2,0.2-0.3C78.4,3,78.6,3,78.7,2.9c-0.1,0-0.2-0.1-0.3-0.1c-0.1,0-0.2-0.1-0.3-0.2c-0.1-0.1-0.2-0.2-0.2-0.4
	c-0.1-0.2-0.1-0.3-0.1-0.6c0-0.2,0-0.3,0.1-0.5C77.9,1,78,0.9,78,0.8c0.1-0.1,0.1-0.2,0.2-0.3c0.1-0.1,0.2-0.1,0.2-0.2
	c0.1-0.1,0.2-0.1,0.3-0.1c0.1,0,0.2,0,0.4-0.1c0.1,0,0.2,0,0.3,0c0.1,0,0.2,0,0.3,0H82V5.4z M72.5,0.1h0.7v4.3h0l2.7-4.3h0.8v5.3H76
	V1.1h0l-2.7,4.3h-0.8V0.1z M69.6,2.4c0.2,0,0.4,0,0.6-0.1c0.1,0,0.3-0.1,0.3-0.2c0.1-0.1,0.1-0.2,0.2-0.3c0-0.1,0-0.2,0-0.3
	c0-0.1,0-0.2-0.1-0.3c0-0.1-0.1-0.2-0.2-0.2c-0.1-0.1-0.2-0.1-0.3-0.2c-0.1,0-0.3-0.1-0.5-0.1h-1.3v1.6H69.6z M69.7,4.8
	c0.2,0,0.4,0,0.6-0.1c0.2,0,0.3-0.1,0.4-0.2c0.1-0.1,0.2-0.2,0.2-0.3c0-0.1,0.1-0.2,0.1-0.4s0-0.3-0.1-0.4c0-0.1-0.1-0.2-0.2-0.3
	c-0.1-0.1-0.2-0.1-0.4-0.2C70.1,3,69.9,3,69.7,3h-1.4v1.9H69.7z M67.5,0.1h1.9c0.2,0,0.4,0,0.6,0c0.2,0,0.3,0,0.4,0.1
	c0.1,0,0.3,0.1,0.4,0.2c0.1,0.1,0.2,0.2,0.3,0.3c0.1,0.1,0.2,0.2,0.2,0.4c0,0.1,0.1,0.3,0.1,0.5c0,0.1,0,0.2,0,0.3
	c0,0.1-0.1,0.2-0.1,0.3c-0.1,0.1-0.1,0.2-0.2,0.3c-0.1,0.1-0.2,0.2-0.3,0.2c0.1,0,0.2,0.1,0.3,0.2c0.1,0.1,0.2,0.1,0.3,0.3
	c0.1,0.1,0.2,0.2,0.2,0.4c0.1,0.1,0.1,0.3,0.1,0.5c0,0.1,0,0.2,0,0.4c0,0.1-0.1,0.2-0.1,0.4c-0.1,0.1-0.1,0.2-0.2,0.3
	C71.1,5,71,5.1,70.9,5.2c-0.1,0.1-0.3,0.1-0.5,0.2c-0.2,0-0.4,0.1-0.6,0.1h-2.2V0.1z M62.1,5.4l2-5.4h0.9l1.9,5.4h-0.8l-0.6-1.6
	h-2.1l-0.6,1.6H62.1z M65.3,3.3l-0.8-2.4l-0.9,2.4H65.3z M57.6,0.1h2.2c0.3,0,0.5,0,0.8,0.1c0.2,0.1,0.4,0.2,0.5,0.3
	c0.1,0.1,0.2,0.3,0.3,0.5c0.1,0.2,0.1,0.4,0.1,0.6s0,0.4-0.1,0.6c-0.1,0.2-0.2,0.4-0.3,0.5C61,3,60.8,3.1,60.6,3.1
	c-0.2,0.1-0.5,0.1-0.8,0.1h-1.5v2.2h-0.7V0.1z M59.7,2.6c0.4,0,0.6-0.1,0.8-0.2c0.2-0.2,0.3-0.4,0.3-0.7c0-0.3-0.1-0.5-0.3-0.7
	c-0.2-0.2-0.4-0.2-0.8-0.2h-1.5v1.9H59.7z M53.7,0.8c0,0.3,0,0.7,0,1c0,0.3-0.1,0.7-0.1,1c0,0.3-0.1,0.5-0.1,0.7S53.4,3.9,53.4,4
	c0,0.1-0.1,0.3-0.1,0.4c0,0.1-0.1,0.3-0.1,0.4h2.5V0.8H53.7z M52,6.6V4.8h0.5c0.1-0.1,0.1-0.2,0.1-0.4c0-0.1,0.1-0.3,0.1-0.4
	c0-0.2,0.1-0.3,0.1-0.5c0-0.2,0.1-0.4,0.1-0.7C52.9,2.6,53,2.3,53,2c0-0.3,0-0.5,0-0.8c0-0.2,0-0.5,0-0.6c0-0.2,0-0.4,0-0.5h3.3v4.7
	H57v1.8h-0.7V5.4h-3.7v1.1H52z M48.8,2.4h1c0.2,0,0.3,0,0.4-0.1c0.1,0,0.2-0.1,0.3-0.2c0.1-0.1,0.1-0.2,0.2-0.3
	c0-0.1,0.1-0.2,0.1-0.3c0-0.2,0-0.3-0.1-0.4c-0.1-0.1-0.2-0.2-0.3-0.3c-0.1-0.1-0.2-0.1-0.4-0.2c-0.2,0-0.3-0.1-0.5-0.1
	c-0.2,0-0.4,0-0.6,0.1c-0.2,0.1-0.3,0.1-0.4,0.3c-0.1,0.1-0.2,0.2-0.3,0.4C48,1.5,48,1.6,48,1.8h-0.7c0-0.2,0-0.4,0.1-0.6
	c0.1-0.2,0.1-0.3,0.2-0.5c0.1-0.1,0.2-0.2,0.3-0.3c0.1-0.1,0.3-0.2,0.4-0.2c0.2-0.1,0.3-0.1,0.5-0.1c0.2,0,0.3,0,0.5,0
	c0.3,0,0.5,0,0.8,0.1c0.2,0.1,0.4,0.2,0.6,0.3c0.2,0.1,0.3,0.3,0.4,0.5c0.1,0.2,0.1,0.4,0.1,0.6c0,0.3-0.1,0.5-0.2,0.7
	c-0.1,0.2-0.3,0.3-0.6,0.4v0c0.1,0,0.3,0.1,0.4,0.2c0.1,0.1,0.2,0.2,0.3,0.3c0.1,0.1,0.1,0.2,0.2,0.4c0,0.1,0.1,0.3,0.1,0.5
	c0,0.3-0.1,0.5-0.2,0.7c-0.1,0.2-0.3,0.4-0.5,0.5c-0.2,0.1-0.4,0.2-0.7,0.3c-0.3,0.1-0.5,0.1-0.8,0.1c-0.3,0-0.6,0-0.9-0.1
	c-0.3-0.1-0.5-0.2-0.7-0.3c-0.2-0.1-0.4-0.3-0.5-0.5c-0.1-0.2-0.2-0.5-0.2-0.8h0.7c0,0.2,0,0.3,0.1,0.4c0.1,0.1,0.1,0.2,0.3,0.3
	c0.1,0.1,0.3,0.2,0.4,0.2C48.8,4.9,49.1,5,49.3,5c0.2,0,0.4,0,0.6-0.1c0.2,0,0.3-0.1,0.5-0.2c0.1-0.1,0.2-0.2,0.3-0.3
	c0.1-0.1,0.1-0.3,0.1-0.5c0-0.1,0-0.3-0.1-0.4c0-0.1-0.1-0.2-0.2-0.3c-0.1-0.1-0.2-0.1-0.3-0.2C50.1,3,49.9,3,49.7,3h-0.9V2.4z"/>
</svg>
