<?xml version="1.0" encoding="utf-8"?>
<!-- Generator: Adobe Illustrator 15.0.2, SVG Export Plug-In . SVG Version: 6.00 Build 0)  -->
<!DOCTYPE svg PUBLIC "-//W3C//DTD SVG 1.1//EN" "http://www.w3.org/Graphics/SVG/1.1/DTD/svg11.dtd">
<svg version="1.1" xmlns="http://www.w3.org/2000/svg" xmlns:xlink="http://www.w3.org/1999/xlink" x="0px" y="0px" width="13.992px" height="14.017px" viewBox="0 0 13.992 14.017" enable-background="new 0 0 13.992 14.017" xml:space="preserve">
	<path d="M12.345,0H1.646C0.863,0,0,0.894,0,1.649v10.718c0,0.754,0.863,1.648,1.646,1.648h5.827V8.581H5.643V6.474
		h1.831V4.912c0-1.81,1.103-2.789,2.716-2.789c0.771,0,1.436,0.052,1.629,0.078v1.892H10.7c-0.876,0-1.04,0.418-1.04,1.03v1.351
		h2.085l-0.272,2.107H9.66v5.436h2.685c0.782,0,1.647-0.895,1.647-1.648V1.649C13.992,0.894,13.1,0,12.345,0z"/>
</svg>
