<?xml version="1.0" encoding="utf-8"?>
<!-- Generator: Adobe Illustrator 15.0.2, SVG Export Plug-In . SVG Version: 6.00 Build 0)  -->
<!DOCTYPE svg PUBLIC "-//W3C//DTD SVG 1.1//EN" "http://www.w3.org/Graphics/SVG/1.1/DTD/svg11.dtd">
<svg version="1.1" xmlns="http://www.w3.org/2000/svg" xmlns:xlink="http://www.w3.org/1999/xlink" x="0px" y="0px"
	 width="14px" height="13.999px" viewBox="0 0 14 13.999" enable-background="new 0 0 14 13.999" xml:space="preserve">
	<path fill-rule="evenodd" clip-rule="evenodd" d="M10.5,0h-7C1.773,0,0,1.702,0,3.499v7C0,12.263,1.7,14,3.5,14h7
		c1.763,0,3.5-1.699,3.5-3.5v-7C14,1.702,12.263,0,10.5,0z M7.001,10.509c-1.934,0-3.5-1.568-3.5-3.5c0-1.933,1.566-3.5,3.5-3.5
		s3.5,1.567,3.5,3.5C10.501,8.941,8.935,10.509,7.001,10.509z M11.001,4.009c-0.553,0-1-0.447-1-1s0.447-1,1-1s1,0.447,1,1
		S11.554,4.009,11.001,4.009z"/>
</svg>
