<?xml version="1.0" encoding="utf-8"?>
<!-- Generator: Adobe Illustrator 15.0.2, SVG Export Plug-In . SVG Version: 6.00 Build 0)  -->
<!DOCTYPE svg PUBLIC "-//W3C//DTD SVG 1.1//EN" "http://www.w3.org/Graphics/SVG/1.1/DTD/svg11.dtd">
<svg version="1.1" id="Layer_1" xmlns="http://www.w3.org/2000/svg" xmlns:xlink="http://www.w3.org/1999/xlink" x="0px" y="0px"
	 width="16.946px" height="10.033px" viewBox="0 0 16.946 10.033" enable-background="new 0 0 16.946 10.033" xml:space="preserve">
<path d="M16.244,8.128c-0.505-0.637-1.099-1.176-1.66-1.75c-0.507-0.514-0.539-0.816-0.132-1.412
	c0.445-0.653,0.924-1.279,1.371-1.928c0.42-0.608,0.848-1.212,1.068-1.938c0.14-0.461,0.016-0.665-0.438-0.746
	c-0.077-0.014-0.158-0.016-0.237-0.016l-2.685-0.002c-0.331-0.006-0.514,0.146-0.631,0.452c-0.158,0.415-0.32,0.828-0.509,1.229
	c-0.427,0.906-0.903,1.783-1.571,2.525c-0.147,0.164-0.311,0.369-0.557,0.286C9.956,4.712,9.866,4.181,9.871,4L9.868,0.757
	C9.809,0.297,9.71,0.09,9.271,0H6.481C6.109,0,5.923,0.148,5.724,0.394C5.609,0.536,5.575,0.625,5.811,0.673
	c0.463,0.091,0.724,0.405,0.793,0.89c0.11,0.777,0.103,1.556,0.039,2.336C6.624,4.126,6.587,4.354,6.5,4.564
	C6.365,4.899,6.147,4.968,5.861,4.761C5.603,4.575,5.421,4.313,5.243,4.05C4.573,3.061,4.04,1.992,3.604,0.871
	C3.479,0.55,3.262,0.354,2.935,0.349c-0.806-0.015-1.611-0.017-2.417,0c-0.484,0.01-0.63,0.255-0.432,0.715
	C0.963,3.107,1.94,5.092,3.214,6.902C3.868,7.828,4.62,8.648,5.591,9.228c1.101,0.656,2.285,0.857,3.531,0.795
	c0.585-0.027,0.761-0.186,0.787-0.795c0.019-0.418,0.063-0.832,0.26-1.207c0.193-0.367,0.485-0.438,0.822-0.207
	c0.168,0.113,0.311,0.258,0.443,0.412c0.33,0.375,0.646,0.764,0.987,1.127c0.429,0.455,0.935,0.725,1.573,0.67h2.467
	c0.398-0.025,0.604-0.535,0.376-1C16.678,8.697,16.468,8.408,16.244,8.128z"/>
</svg>
